<?xml version="1.0" encoding="UTF-8"?><svg id="a" xmlns="http://www.w3.org/2000/svg" viewBox="0 0 300 200"><rect width="300" height="200" fill="#262d42"/><polygon points=".93 101.73 .93 101.73 .93 101.73 .93 101.73 .93 101.73 .93 101.73 .93 101.73 .93 101.73 .93 101.73 .93 101.73 .93 101.73 .93 101.73 .93 101.73 .93 101.73 .93 101.73 .93 101.73 .93 101.73 .93 101.73 .93 101.73 .93 101.73 .93 101.73 .93 101.73 .93 101.73 .93 101.73 .93 101.73 .93 101.73 .93 101.73 .93 101.73 .93 101.73 .93 101.73 .93 101.73 .93 101.73 .93 101.73 .93 101.73 .93 101.73 .93 101.73 .93 101.73 .93 101.73 .93 101.73 .93 101.73 .93 101.73 .93 101.73 .93 101.73 .93 101.73 .93 101.73 .93 101.73 .93 101.73 .93 101.73 .93 101.73 .93 101.73 .93 101.73 .93 101.73 .93 101.73 .93 101.73 .93 101.73 .93 101.73 .93 101.73 .93 101.73 .93 101.73 .93 101.73 .93 101.73 .93 101.73 .93 101.73 .93 101.73 .93 101.73 .93 101.73 .93 101.73 .93 101.73 .93 101.73 .93 101.73 .93 101.73 .93 101.73 .93 101.73 .93 101.73 .93 101.73 .93 101.73 .93 101.73 .93 101.73 .93 101.73 .93 101.73 .93 101.73 .93 101.73 .93 101.73 .93 101.73 .93 101.73 .93 101.73 .93 101.73 .93 101.73 .93 101.73 .93 101.73 .93 101.73 .93 101.73 .93 101.73 .93 101.73 .93 101.73 .93 101.73 .93 101.73 .93 101.73 .93 101.73 .93 101.73 .93 101.73 .93 101.73 .93 101.73 .93 101.73 .93 101.73 .93 101.73 .93 101.73 .93 101.73 .93 101.73 .93 101.73 .93 101.73 .93 101.73 .93 101.73 .93 101.73 .93 101.73 .93 101.73 .93 101.73 .93 101.73 .93 101.73 .93 101.73 .93 101.73 .93 101.73 .93 101.73 .93 101.73 .93 101.73 .93 101.73 .93 101.73 .93 101.73 .93 101.73 .93 101.73 .93 101.73 .93 101.73 .93 101.73 .93 101.73 .93 101.73 .93 101.73 .93 101.73 .93 101.73 .93 101.73 .93 101.73 .93 101.73 .93 101.73 .93 101.73 .93 101.73 .93 101.73 .93 101.73 .93 101.73 .93 101.73 .93 101.73 .93 101.73 .93 101.73 .93 101.73 .93 101.73 .93 101.73 .93 101.73" fill="none" opacity="0" stroke="#000" stroke-miterlimit="10"/><path id="b" d="M27.02,158.71l5.97-8.75c.96-1.39,2.44-2.79,6.31-2.83v-1.35c-1.7.04-3.74.13-4.83.13-1.74,0-3.83,0-5.57-.13v1.35c1.74.04,2.7,1,2.7,2,0,.44-.09.52-.39,1l-4.96,7.36-5.62-8.4c-.09-.13-.3-.48-.3-.65,0-.52.96-1.26,2.83-1.31v-1.35c-1.52.13-4.7.13-6.36.13-1.35,0-4.05-.04-5.66-.13v1.35h.83c2.39,0,3.22.3,4.05,1.52l8.01,12.11-7.14,10.54c-.61.87-1.92,2.87-6.31,2.87v1.35c1.57-.04,3.4-.13,4.83-.13,1.61,0,4.01,0,5.57.13v-1.35c-2-.04-2.74-1.22-2.74-2,0-.39.13-.57.44-1.05l6.18-9.14,6.88,10.41c.09.17.22.35.22.48,0,.52-.96,1.26-2.83,1.31v1.35c1.52-.13,4.7-.13,6.36-.13,1.83,0,3.83.04,5.66.13v-1.35h-.83c-2.26,0-3.18-.22-4.09-1.57l-9.19-13.89Z" fill="#e6e7e8" stroke="#e6e7e8" stroke-miterlimit="10"/><path id="c" d="M283.87,149.96c1.61-2.66,4.18-2.83,5.57-2.83v-1.35c-1.35.09-3.09.13-4.27.13-1.35,0-3.88-.09-5.01-.13v1.35c1.79,0,2.48.83,2.48,1.7,0,.48-.26,1.05-.44,1.31l-7.18,11.67-7.88-12.85c-.3-.44-.3-.52-.3-.74,0-.91,1.09-1.09,3.05-1.09v-1.35c-1.57.13-4.75.13-6.44.13-1.83,0-3.83-.04-5.66-.13v1.35h.78c2.96,0,3.31.48,4.01,1.61l9.14,14.89v8.49c0,1.57-.09,2.05-3.44,2.05h-1.05v1.35c1.57-.13,4.66-.13,6.36-.13s4.79,0,6.36.13v-1.35h-1c-3.35,0-3.48-.44-3.48-2.13v-8.4l8.4-13.67Z" fill="#e6e7e8" stroke="#e6e7e8" stroke-miterlimit="10"/><path id="d" d="M160.25,23.41c.3-.48.3-.52.3-.83,0-.7-.26-.7-1.13-.7h-19.51l-.48,9.8h1.09c.3-4.92,1.61-8.45,8.75-8.45h6.84l-16.94,26.78c-.3.48-.3.52-.3.87,0,.74.22.74,1.13.74h20.07l.74-11.63h-1.09c-.35,6.05-1.18,10.15-9.23,10.15h-7.14l16.89-26.74Z" fill="#e6e7e8" stroke="#e6e7e8" stroke-miterlimit="10"/><path d="M121.05,65.42l-58.8,58.8" fill="none" stroke="#41485f" stroke-dasharray="3 3" stroke-miterlimit="10" stroke-width="4"/><path d="M56.11,130.38l14.77-4.93-8.62-1.23-1.23-8.62" fill="#41485f"/><path d="M75.4,86.3l24.79,24.77" fill="none" stroke="#9b332b" stroke-miterlimit="10" stroke-width="3"/><path d="M199.3,111.07l24.77-24.77" fill="none" stroke="#9b332b" stroke-miterlimit="10" stroke-width="3"/><path d="M178.43,65.42l58.78,58.8" fill="none" stroke="#41485f" stroke-dasharray="3 3" stroke-miterlimit="10" stroke-width="4"/><path d="M243.38,130.38l-4.93-14.79-1.23,8.62-8.62,1.23" fill="#41485f"/><path d="M57.56,160.64h175.65" fill="none" stroke="#f7c267" stroke-miterlimit="10" stroke-width="4"/><path d="M241.93,160.64l-13.95-6.97,5.22,6.97-5.22,6.97" fill="#f7c267"/></svg>