<?xml version="1.0" encoding="UTF-8"?><svg id="a" xmlns="http://www.w3.org/2000/svg" viewBox="0 0 300 200"><rect width="300" height="200" fill="#d39a2d"/><path d="M153.3,86.51c.4-.43.4-.65.4-.76,0-.25,0-.32-.68-1.04l-2.15-2.44c-.4-.43-.54-.57-.86-.57-.4,0-.72.36-.72.72,0,.21,0,.29.57.9.65.75,1.37,1.47,2.15,2.44l-4.45,4.92c-.04.07-.61.72-.75.9-.5.5-.5.57-.5.83s0,.32.72,1.11l2.55,2.84,2.44,2.69-2.37,2.66c-.36.4-.36.47-.36,1.22v7.76c-.29-.32-2.05-2.37-5.28-3.63v1.11c1.65.61,4.2,2.01,6,5.39,1.83-3.38,4.38-4.81,6-5.39v-1.11c-3.23,1.26-4.99,3.3-5.28,3.63v-8.05c1.29-1.4,1.69-1.8,2.41-2.62.57-.65.57-.72.57-.97s-.07-.32-.4-.72c-.07-.11-4.63-5.14-5.32-5.93l5.32-5.89" fill="#e6e7e8"/><path d="M101.96,141.52c.32-1.26.4-1.36,1.94-1.36h3.45c2.98,0,4.88.97,4.88,3.45,0,1.4-.72,4.49-2.12,5.78-1.79,1.62-3.95,1.9-5.53,1.9h-5.06l2.44-9.77M99.37,152.22h6.11c5.1,0,10.09-3.74,10.09-7.76,0-2.77-2.37-5.42-7.08-5.42h-11.64c-.68,0-1.08,0-1.08.68,0,.43.32.43,1.04.43.46,0,1.11.04,1.54.07.57.07.79.18.79.57,0,.14-.04.25-.14.68l-4.81,19.29c-.36,1.4-.43,1.69-3.27,1.69-.61,0-1.01,0-1.01.68,0,.43.43.43.54.43,1.01,0,3.56-.11,4.56-.11.76,0,1.54.04,2.3.04.79,0,1.58.07,2.33.07.25,0,.72,0,.72-.72,0-.4-.32-.4-1.01-.4-1.33,0-2.33,0-2.33-.65,0-.22.07-.4.11-.61l2.23-8.98Z" fill="#e6e7e8" stroke="#e6e7e8" stroke-miterlimit="10"/><path d="M128.38,172.19c0-.11,0-.18-.61-.79-4.49-4.52-5.64-11.31-5.64-16.81,0-6.25,1.36-12.5,5.78-16.99.47-.43.47-.5.47-.61,0-.25-.14-.36-.36-.36-.36,0-3.59,2.44-5.71,7-1.83,3.95-2.26,7.94-2.26,10.95,0,2.8.39,7.15,2.37,11.2,2.15,4.42,5.24,6.75,5.6,6.75.22,0,.36-.11.36-.36" fill="#e6e7e8" stroke="#e6e7e8" stroke-miterlimit="10"/><path d="M147.95,149.89c.14-.5.14-.57.14-.83,0-.65-.5-.97-1.04-.97-.36,0-.93.22-1.26.75-.07.18-.36,1.29-.5,1.94-.25.93-.5,1.9-.72,2.87l-1.61,6.46c-.14.54-1.69,3.05-4.06,3.05-1.83,0-2.23-1.58-2.23-2.91,0-1.65.61-3.88,1.83-7.04.57-1.47.72-1.87.72-2.59,0-1.62-1.15-2.94-2.94-2.94-3.41,0-4.74,5.21-4.74,5.53,0,.36.36.36.43.36.36,0,.39-.07.57-.65.97-3.38,2.41-4.45,3.63-4.45.29,0,.9,0,.9,1.15,0,.9-.36,1.83-.61,2.51-1.44,3.81-2.08,5.85-2.08,7.54,0,3.2,2.26,4.27,4.38,4.27,1.4,0,2.62-.61,3.63-1.62-.47,1.87-.9,3.63-2.33,5.53-.93,1.22-2.3,2.26-3.95,2.26-.5,0-2.12-.11-2.73-1.51.57,0,1.04,0,1.54-.43.36-.32.72-.79.72-1.47,0-1.11-.97-1.26-1.33-1.26-.82,0-2.01.57-2.01,2.33s1.58,3.12,3.81,3.12c3.7,0,7.4-3.27,8.4-7.33l3.45-13.72" fill="#e6e7e8" stroke="#e6e7e8" stroke-miterlimit="10"/><path d="M165,137.93c0-.65,0-1.29-.72-1.29s-.72.65-.72,1.29v33.33c0,.65,0,1.29.72,1.29s.72-.65.72-1.29v-33.33" fill="#e6e7e8" stroke="#e6e7e8" stroke-miterlimit="10"/><path d="M191.19,152.73c.22-.93,1.04-4.24,3.56-4.24.18,0,1.04,0,1.79.47-1.01.18-1.72,1.08-1.72,1.94,0,.57.39,1.26,1.37,1.26.79,0,1.94-.65,1.94-2.08,0-1.87-2.12-2.37-3.34-2.37-2.08,0-3.34,1.9-3.77,2.73-.9-2.37-2.84-2.73-3.88-2.73-3.74,0-5.78,4.63-5.78,5.53,0,.36.36.36.43.36.29,0,.39-.07.47-.4,1.22-3.81,3.59-4.7,4.81-4.7.68,0,1.94.32,1.94,2.41,0,1.11-.61,3.52-1.94,8.55-.58,2.23-1.83,3.73-3.41,3.73-.21,0-1.04,0-1.8-.47.9-.18,1.69-.93,1.69-1.94s-.79-1.26-1.33-1.26c-1.08,0-1.98.93-1.98,2.08,0,1.65,1.8,2.37,3.38,2.37,2.37,0,3.66-2.51,3.77-2.73.43,1.33,1.72,2.73,3.88,2.73,3.7,0,5.75-4.63,5.75-5.53,0-.36-.32-.36-.43-.36-.32,0-.39.14-.47.4-1.19,3.84-3.63,4.7-4.78,4.7-1.4,0-1.98-1.15-1.98-2.37,0-.79.22-1.58.61-3.16l1.22-4.92" fill="#e6e7e8" stroke="#e6e7e8" stroke-miterlimit="10"/><path d="M210.07,154.59c0-2.8-.4-7.15-2.37-11.21-2.15-4.42-5.24-6.75-5.6-6.75-.22,0-.36.14-.36.36,0,.11,0,.18.68.83,3.52,3.55,5.57,9.27,5.57,16.77,0,6.14-1.33,12.46-5.78,16.99-.47.43-.47.5-.47.61,0,.22.14.36.36.36.36,0,3.59-2.44,5.71-7,1.83-3.95,2.26-7.94,2.26-10.95" fill="#e6e7e8" stroke="#e6e7e8" stroke-miterlimit="10"/><path d="M69.06,27.58c.32-1.26.4-1.36,1.94-1.36h3.45c2.98,0,4.88.97,4.88,3.45,0,1.4-.72,4.49-2.12,5.78-1.8,1.62-3.95,1.9-5.53,1.9h-5.06l2.44-9.77M66.47,38.28h6.11c5.1,0,10.09-3.74,10.09-7.76,0-2.77-2.37-5.42-7.08-5.42h-11.64c-.68,0-1.08,0-1.08.68,0,.43.32.43,1.04.43.47,0,1.11.04,1.54.07.57.07.79.18.79.57,0,.14-.04.25-.14.68l-4.81,19.29c-.36,1.4-.43,1.69-3.27,1.69-.61,0-1.01,0-1.01.68,0,.43.43.43.54.43,1.01,0,3.56-.11,4.56-.11.75,0,1.55.04,2.3.04.79,0,1.58.07,2.33.07.25,0,.72,0,.72-.72,0-.4-.32-.4-1.01-.4-1.33,0-2.33,0-2.33-.65,0-.22.07-.4.11-.61l2.23-8.98Z" fill="#e6e7e8" stroke="#e6e7e8" stroke-miterlimit="10"/><path d="M95.48,58.25c0-.11,0-.18-.61-.79-4.49-4.52-5.64-11.31-5.64-16.81,0-6.25,1.36-12.5,5.78-16.99.47-.43.47-.5.47-.61,0-.25-.14-.36-.36-.36-.36,0-3.59,2.44-5.71,7-1.83,3.95-2.26,7.94-2.26,10.95,0,2.8.39,7.15,2.37,11.2,2.15,4.42,5.24,6.75,5.6,6.75.22,0,.36-.11.36-.36" fill="#e6e7e8" stroke="#e6e7e8" stroke-miterlimit="10"/><path d="M115.05,35.94c.14-.5.14-.57.14-.83,0-.65-.5-.97-1.04-.97-.36,0-.93.22-1.26.75-.07.18-.36,1.29-.5,1.94-.25.93-.5,1.9-.72,2.87l-1.62,6.46c-.14.54-1.69,3.05-4.06,3.05-1.83,0-2.23-1.58-2.23-2.91,0-1.65.61-3.88,1.83-7.04.57-1.47.72-1.87.72-2.59,0-1.62-1.15-2.94-2.94-2.94-3.41,0-4.74,5.21-4.74,5.53,0,.36.36.36.43.36.36,0,.4-.07.58-.65.97-3.38,2.41-4.45,3.63-4.45.29,0,.9,0,.9,1.15,0,.9-.36,1.83-.61,2.51-1.44,3.81-2.08,5.85-2.08,7.54,0,3.2,2.26,4.27,4.38,4.27,1.4,0,2.62-.61,3.63-1.62-.47,1.87-.9,3.63-2.33,5.53-.93,1.22-2.3,2.26-3.95,2.26-.5,0-2.12-.11-2.73-1.51.57,0,1.04,0,1.54-.43.36-.32.72-.79.72-1.47,0-1.11-.97-1.26-1.33-1.26-.82,0-2.01.57-2.01,2.33s1.58,3.12,3.81,3.12c3.7,0,7.4-3.27,8.4-7.33l3.45-13.72" fill="#e6e7e8" stroke="#e6e7e8" stroke-miterlimit="10"/><path d="M132.1,23.99c0-.65,0-1.29-.72-1.29s-.72.65-.72,1.29v33.33c0,.65,0,1.29.72,1.29s.72-.65.72-1.29V23.99" fill="#e6e7e8" stroke="#e6e7e8" stroke-miterlimit="10"/><path d="M159.94,38.03v7.36c0,.65,0,.72-.4,1.33-1.08,1.72-2.69,2.51-4.24,2.51s-2.91-.93-3.77-2.3c-.94-1.47-1.04-3.52-1.04-4.99,0-1.33.07-3.48,1.11-5.1.75-1.11,2.12-2.3,4.06-2.3,1.26,0,2.77.54,3.88,2.15.4.61.4.68.4,1.33M159.94,47.65v2.37l5.28-.4v-1.11c-2.51,0-2.8-.25-2.8-2.01v-21.8l-5.17.4v1.11c2.51,0,2.8.25,2.8,2.01v7.76c-1.04-1.29-2.59-2.23-4.53-2.23-4.24,0-8.01,3.52-8.01,8.15s3.52,8.12,7.61,8.12c2.3,0,3.92-1.22,4.81-2.37Z" fill="#e6e7e8" stroke="#e6e7e8" stroke-miterlimit="10"/><path d="M175.27,49.12c-1.54,0-3.12-.75-4.09-2.41-.9-1.58-.9-3.77-.9-5.06,0-1.4,0-3.34.86-4.92.97-1.65,2.66-2.41,4.09-2.41,1.58,0,3.12.79,4.06,2.33.93,1.55.93,3.63.93,4.99,0,1.29,0,3.23-.79,4.81-.79,1.62-2.37,2.66-4.17,2.66M183.21,41.94c0-4.6-3.59-8.4-7.94-8.4s-7.97,3.91-7.97,8.4,3.74,8.08,7.94,8.08,7.97-3.52,7.97-8.08Z" fill="#e6e7e8" stroke="#e6e7e8" stroke-miterlimit="10"/><path d="M196.08,58.25c0-.11,0-.18-.61-.79-4.49-4.52-5.64-11.31-5.64-16.81,0-6.25,1.36-12.5,5.78-16.99.47-.43.47-.5.47-.61,0-.25-.14-.36-.36-.36-.36,0-3.59,2.44-5.71,7-1.83,3.95-2.26,7.94-2.26,10.95,0,2.8.39,7.15,2.37,11.2,2.15,4.42,5.24,6.75,5.6,6.75.22,0,.36-.11.36-.36" fill="#e6e7e8" stroke="#e6e7e8" stroke-miterlimit="10"/><path d="M210.19,38.78c.22-.93,1.04-4.24,3.56-4.24.18,0,1.04,0,1.79.47-1.01.18-1.72,1.08-1.72,1.94,0,.57.39,1.26,1.37,1.26.79,0,1.94-.65,1.94-2.08,0-1.87-2.12-2.37-3.34-2.37-2.09,0-3.34,1.9-3.77,2.73-.9-2.37-2.84-2.73-3.88-2.73-3.74,0-5.78,4.63-5.78,5.53,0,.36.36.36.43.36.29,0,.4-.07.47-.4,1.22-3.81,3.59-4.7,4.81-4.7.68,0,1.94.32,1.94,2.41,0,1.11-.61,3.52-1.94,8.55-.58,2.23-1.83,3.73-3.41,3.73-.21,0-1.04,0-1.79-.47.9-.18,1.69-.93,1.69-1.94s-.79-1.26-1.33-1.26c-1.08,0-1.98.93-1.98,2.08,0,1.65,1.8,2.37,3.38,2.37,2.37,0,3.66-2.51,3.77-2.73.43,1.33,1.72,2.73,3.88,2.73,3.7,0,5.75-4.63,5.75-5.53,0-.36-.32-.36-.43-.36-.32,0-.4.14-.47.4-1.19,3.84-3.63,4.7-4.78,4.7-1.4,0-1.98-1.15-1.98-2.37,0-.79.22-1.58.61-3.16l1.22-4.92" fill="#e6e7e8" stroke="#e6e7e8" stroke-miterlimit="10"/><path d="M229.07,40.65c0-2.8-.4-7.15-2.37-11.21-2.15-4.42-5.24-6.75-5.6-6.75-.21,0-.36.14-.36.36,0,.11,0,.18.68.83,3.52,3.55,5.57,9.27,5.57,16.77,0,6.14-1.33,12.46-5.78,16.99-.47.43-.47.5-.47.61,0,.22.14.36.36.36.36,0,3.59-2.44,5.71-7,1.83-3.95,2.26-7.94,2.26-10.95" fill="#e6e7e8" stroke="#e6e7e8" stroke-miterlimit="10"/><path d="M242.97,40.65c0-2.8-.4-7.15-2.37-11.21-2.15-4.42-5.24-6.75-5.6-6.75-.21,0-.36.14-.36.36,0,.11,0,.18.68.83,3.52,3.55,5.57,9.27,5.57,16.77,0,6.14-1.33,12.46-5.78,16.99-.47.43-.47.5-.47.61,0,.22.14.36.36.36.36,0,3.59-2.44,5.71-7,1.83-3.95,2.26-7.94,2.26-10.95" fill="#e6e7e8" stroke="#e6e7e8" stroke-miterlimit="10"/></svg>